<svg width="32" height="32" viewBox="0 0 32 32" fill="none" xmlns="http://www.w3.org/2000/svg">
<path d="M16 0C7.1824 0 0 7.1824 0 16C0 24.8176 7.1824 32 16 32C24.8176 32 32 24.8176 32 16C32 7.1824 24.8176 0 16 0ZM16 3.2C23.0882 3.2 28.8 8.9118 28.8 16C28.8 18.9649 27.7908 21.6809 26.1094 23.8469L8.15312 5.89062C10.3191 4.20918 13.0351 3.2 16 3.2ZM5.89062 8.15312L23.8469 26.1094C21.6809 27.7908 18.9649 28.8 16 28.8C8.9118 28.8 3.2 23.0882 3.2 16C3.2 13.0351 4.20918 10.3191 5.89062 8.15312Z" fill="#FFFDFD"/>
</svg>
